 <svg version="1.1" id="ios7_x5F_arrows_1_" xmlns="http://www.w3.org/2000/svg" x="0" y="0" style="enable-background:new 0 0 128 128" xml:space="preserve">
 
 
 <symbol id="left__arrow" viewBox="0 0 200 200"  >
 <path d="M64.1 0C28.8 0 .2 28.7.2 64s28.6 64 63.9 64S128 99.3 128 64c-.1-35.3-28.7-64-63.9-64zm0 122.7C31.7 122.7 5.5 96.4 5.5 64c0-32.4 26.2-58.7 58.6-58.7 32.3 0 58.6 26.3 58.6 58.7-.1 32.4-26.3 58.7-58.6 58.7zM72 37.3 42.8 64 72 90.7l5.3-2.7-24.5-24 24.6-23-5.4-3.7z"/>
 </symbol>
 <symbol id="right__arrow" viewBox="0 0 200 200" >
 <path d="M64.1 0C28.8 0 .2 28.7.2 64s28.6 64 63.9 64S128 99.3 128 64c-.1-35.3-28.7-64-63.9-64zm0 122.7C31.7 122.7 5.5 96.4 5.5 64c0-32.4 26.2-58.7 58.6-58.7 32.3 0 58.6 26.3 58.6 58.7-.1 32.4-26.3 58.7-58.6 58.7zM50.7 41l26.6 23-26.5 24 5.3 2.7L85.4 64 56.1 37.3 50.7 41z" />
 </symbol>
 
 
 
 </svg>




